<?xml version="1.0" encoding="UTF-8"?>
<svg xmlns="http://www.w3.org/2000/svg" xmlns:xlink="http://www.w3.org/1999/xlink" width="4800" height="4800" viewBox="0 0 4800 4800">
<defs>
<clipPath id="clip-0">
<path clip-rule="nonzero" d="M 2707 2079 L 2980 2079 L 2980 3139 L 2707 3139 Z M 2707 2079 "/>
</clipPath>
<clipPath id="clip-1">
<path clip-rule="evenodd" d="M 2906.480469 3138.519531 L 2707.359375 2594.21875 L 2785.089844 2078.828125 C 2785.089844 2078.828125 3027.011719 2176.949219 3038.691406 2278.96875 C 3058.929688 2455.578125 2994.699219 2980 2906.480469 3138.519531 Z M 2906.480469 3138.519531 "/>
</clipPath>
<clipPath id="clip-2">
<path clip-rule="nonzero" d="M 2707 2078 L 2829 2078 L 2829 2611 L 2707 2611 Z M 2707 2078 "/>
</clipPath>
<clipPath id="clip-3">
<path clip-rule="evenodd" d="M 2906.480469 3138.519531 L 2707.359375 2594.21875 L 2785.089844 2078.828125 C 2785.089844 2078.828125 3027.011719 2176.949219 3038.691406 2278.96875 C 3058.929688 2455.578125 2994.699219 2980 2906.480469 3138.519531 Z M 2906.480469 3138.519531 "/>
</clipPath>
<clipPath id="clip-4">
<path clip-rule="nonzero" d="M 1820 2079 L 2093 2079 L 2093 3139 L 1820 3139 Z M 1820 2079 "/>
</clipPath>
<clipPath id="clip-5">
<path clip-rule="evenodd" d="M 1893.519531 3138.519531 L 2092.640625 2594.21875 L 2014.910156 2078.828125 C 2014.910156 2078.828125 1772.988281 2176.949219 1761.308594 2278.96875 C 1741.070312 2455.578125 1805.300781 2980 1893.519531 3138.519531 Z M 1893.519531 3138.519531 "/>
</clipPath>
<clipPath id="clip-6">
<path clip-rule="nonzero" d="M 2008 606 L 2731 606 L 2731 2586 L 2008 2586 Z M 2008 606 "/>
</clipPath>
<clipPath id="clip-7">
<path clip-rule="evenodd" d="M 2378.191406 574.910156 C 2800.949219 1221.191406 2928.410156 1894.039062 2705.628906 2594.21875 L 2036.949219 2592.25 C 1819.769531 1964.351562 1911.269531 1290.140625 2378.191406 574.910156 Z M 2378.191406 574.910156 "/>
</clipPath>
<clipPath id="clip-8">
<path clip-rule="nonzero" d="M 2369 606 L 2731 606 L 2731 2586 L 2369 2586 Z M 2369 606 "/>
</clipPath>
<clipPath id="clip-9">
<path clip-rule="evenodd" d="M 2376.539062 606.601562 C 2719.851562 1239.96875 2823.351562 1899.390625 2642.441406 2585.589844 L 2099.429688 2583.660156 C 1923.070312 1968.289062 1997.378906 1307.550781 2376.539062 606.601562 Z M 2376.539062 606.601562 "/>
</clipPath>
<clipPath id="clip-10">
<path clip-rule="evenodd" d="M 2378.191406 574.910156 C 2800.949219 1221.191406 2928.410156 1894.039062 2705.628906 2594.21875 L 2036.949219 2592.25 C 1819.769531 1964.351562 1911.269531 1290.140625 2378.191406 574.910156 Z M 2378.191406 574.910156 "/>
</clipPath>
<clipPath id="clip-11">
<path clip-rule="nonzero" d="M 2088 574 L 2626 574 L 2626 946 L 2088 946 Z M 2088 574 "/>
</clipPath>
<clipPath id="clip-12">
<path clip-rule="evenodd" d="M 2378.191406 574.910156 C 2800.949219 1221.191406 2928.410156 1894.039062 2705.628906 2594.21875 L 2036.949219 2592.25 C 1819.769531 1964.351562 1911.269531 1290.140625 2378.191406 574.910156 Z M 2378.191406 574.910156 "/>
</clipPath>
<clipPath id="clip-13">
<path clip-rule="nonzero" d="M 2217 602 L 2535 602 L 2535 946 L 2217 946 Z M 2217 602 "/>
</clipPath>
<clipPath id="clip-14">
<path clip-rule="evenodd" d="M 2378.191406 574.910156 C 2800.949219 1221.191406 2928.410156 1894.039062 2705.628906 2594.21875 L 2036.949219 2592.25 C 1819.769531 1964.351562 1911.269531 1290.140625 2378.191406 574.910156 Z M 2378.191406 574.910156 "/>
</clipPath>
<clipPath id="clip-15">
<path clip-rule="nonzero" d="M 2376 602 L 2535 602 L 2535 946 L 2376 946 Z M 2376 602 "/>
</clipPath>
<clipPath id="clip-16">
<path clip-rule="evenodd" d="M 2534.820312 945.421875 C 2488.96875 829.171875 2435.320312 715 2375.988281 602.359375 C 2320.25 715.71875 2266.390625 829.75 2217.191406 945.421875 Z M 2534.820312 945.421875 "/>
</clipPath>
<clipPath id="clip-17">
<path clip-rule="evenodd" d="M 2378.191406 574.910156 C 2800.949219 1221.191406 2928.410156 1894.039062 2705.628906 2594.21875 L 2036.949219 2592.25 C 1819.769531 1964.351562 1911.269531 1290.140625 2378.191406 574.910156 Z M 2378.191406 574.910156 "/>
</clipPath>
<clipPath id="clip-18">
<path clip-rule="nonzero" d="M 2369 2735 L 2594 2735 L 2594 3775 L 2369 3775 Z M 2369 2735 "/>
</clipPath>
<clipPath id="clip-19">
<path clip-rule="evenodd" d="M 2366.601562 3774.410156 C 2161.058594 3513.429688 2092.460938 3172.570312 2188.378906 2735.730469 L 2544.828125 2735.730469 C 2646.480469 3139.300781 2587.921875 3485.828125 2366.601562 3774.410156 Z M 2366.601562 3774.410156 "/>
</clipPath>
<clipPath id="clip-20">
<path clip-rule="nonzero" d="M 2207 2735 L 2532 2735 L 2532 3514 L 2207 3514 Z M 2207 2735 "/>
</clipPath>
<clipPath id="clip-21">
<path clip-rule="evenodd" d="M 2366.601562 3774.410156 C 2161.058594 3513.429688 2092.460938 3172.570312 2188.378906 2735.730469 L 2544.828125 2735.730469 C 2646.480469 3139.300781 2587.921875 3485.828125 2366.601562 3774.410156 Z M 2366.601562 3774.410156 "/>
</clipPath>
<clipPath id="clip-22">
<path clip-rule="nonzero" d="M 2369 2735 L 2532 2735 L 2532 3514 L 2369 3514 Z M 2369 2735 "/>
</clipPath>
<clipPath id="clip-23">
<path clip-rule="evenodd" d="M 2367.390625 3513.949219 C 2218.898438 3318.410156 2169.339844 3063.03125 2238.640625 2735.730469 L 2496.140625 2735.730469 C 2547.25 2946.171875 2542.289062 3135.910156 2480.660156 3304.71875 C 2453.738281 3378.460938 2416 3448.210938 2367.390625 3513.949219 Z M 2367.390625 3513.949219 "/>
</clipPath>
<clipPath id="clip-24">
<path clip-rule="evenodd" d="M 2366.601562 3774.410156 C 2161.058594 3513.429688 2092.460938 3172.570312 2188.378906 2735.730469 L 2544.828125 2735.730469 C 2646.480469 3139.300781 2587.921875 3485.828125 2366.601562 3774.410156 Z M 2366.601562 3774.410156 "/>
</clipPath>
<clipPath id="clip-25">
<path clip-rule="nonzero" d="M 2262 2760 L 2479 2760 L 2479 3279 L 2262 3279 Z M 2262 2760 "/>
</clipPath>
<clipPath id="clip-26">
<path clip-rule="evenodd" d="M 2366.601562 3774.410156 C 2161.058594 3513.429688 2092.460938 3172.570312 2188.378906 2735.730469 L 2544.828125 2735.730469 C 2646.480469 3139.300781 2587.921875 3485.828125 2366.601562 3774.410156 Z M 2366.601562 3774.410156 "/>
</clipPath>
<clipPath id="clip-27">
<path clip-rule="nonzero" d="M 2369 2760 L 2479 2760 L 2479 3279 L 2369 3279 Z M 2369 2760 "/>
</clipPath>
<clipPath id="clip-28">
<path clip-rule="evenodd" d="M 2369.148438 3278.761719 C 2270.210938 3148.460938 2237.179688 2978.28125 2283.359375 2760.179688 L 2454.949219 2760.179688 C 2503.878906 2961.671875 2475.691406 3134.679688 2369.148438 3278.761719 Z M 2369.148438 3278.761719 "/>
</clipPath>
<clipPath id="clip-29">
<path clip-rule="evenodd" d="M 2366.601562 3774.410156 C 2161.058594 3513.429688 2092.460938 3172.570312 2188.378906 2735.730469 L 2544.828125 2735.730469 C 2646.480469 3139.300781 2587.921875 3485.828125 2366.601562 3774.410156 Z M 2366.601562 3774.410156 "/>
</clipPath>
<clipPath id="clip-30">
<path clip-rule="nonzero" d="M 2231 2632 L 2606 2632 L 2606 2739 L 2231 2739 Z M 2231 2632 "/>
</clipPath>
<clipPath id="clip-31">
<path clip-rule="evenodd" d="M 2605.558594 2632.78125 L 2135.378906 2632.78125 C 2135.378906 2632.78125 2140.371094 2695.558594 2146.828125 2712.710938 C 2153.28125 2729.871094 2164.691406 2735.210938 2174.109375 2735.730469 C 2243.328125 2739.558594 2492.128906 2739.109375 2562.148438 2735.730469 C 2573.058594 2735.199219 2586.28125 2727.410156 2594.21875 2715.421875 C 2604.101562 2700.488281 2605.558594 2632.78125 2605.558594 2632.78125 Z M 2605.558594 2632.78125 "/>
</clipPath>
<clipPath id="clip-32">
<path clip-rule="nonzero" d="M 2232 2585 L 2708 2585 L 2708 2633 L 2232 2633 Z M 2232 2585 "/>
</clipPath>
<clipPath id="clip-33">
<path clip-rule="evenodd" d="M 2707.359375 2585.589844 L 2034.398438 2585.589844 C 2034.398438 2585.589844 2036.191406 2611.550781 2040.75 2619.421875 C 2044.820312 2626.441406 2048.710938 2632.710938 2061.738281 2632.78125 C 2160.359375 2633.269531 2581.550781 2635.320312 2679.828125 2632.78125 C 2689.359375 2632.53125 2697.390625 2623.378906 2701.980469 2615.519531 C 2706.570312 2607.648438 2707.359375 2585.589844 2707.359375 2585.589844 Z M 2707.359375 2585.589844 "/>
</clipPath>
<clipPath id="clip-34">
<path clip-rule="nonzero" d="M 2218 1100 L 2521 1100 L 2521 1379 L 2218 1379 Z M 2218 1100 "/>
</clipPath>
<clipPath id="clip-35">
<path clip-rule="evenodd" d="M 2369.421875 1070.179688 C 2470.941406 1070.179688 2553.351562 1146.160156 2553.351562 1239.75 C 2553.351562 1333.339844 2470.941406 1409.320312 2369.421875 1409.320312 C 2267.910156 1409.320312 2185.488281 1333.339844 2185.488281 1239.75 C 2185.488281 1146.160156 2267.910156 1070.179688 2369.421875 1070.179688 Z M 2369.421875 1070.179688 "/>
</clipPath>
<clipPath id="clip-36">
<path clip-rule="nonzero" d="M 2229 1110 L 2510 1110 L 2510 1369 L 2229 1369 Z M 2229 1110 "/>
</clipPath>
<clipPath id="clip-37">
<path clip-rule="evenodd" d="M 2369.421875 1070.179688 C 2470.941406 1070.179688 2553.351562 1146.160156 2553.351562 1239.75 C 2553.351562 1333.339844 2470.941406 1409.320312 2369.421875 1409.320312 C 2267.910156 1409.320312 2185.488281 1333.339844 2185.488281 1239.75 C 2185.488281 1146.160156 2267.910156 1070.179688 2369.421875 1070.179688 Z M 2369.421875 1070.179688 "/>
</clipPath>
<clipPath id="clip-38">
<path clip-rule="nonzero" d="M 2367 1110 L 2510 1110 L 2510 1369 L 2367 1369 Z M 2367 1110 "/>
</clipPath>
<clipPath id="clip-39">
<path clip-rule="evenodd" d="M 2369.421875 1110.960938 C 2446.519531 1110.960938 2509.121094 1168.671875 2509.121094 1239.75 C 2509.121094 1310.820312 2446.519531 1368.53125 2369.421875 1368.53125 C 2292.320312 1368.53125 2229.730469 1310.820312 2229.730469 1239.75 C 2229.730469 1168.671875 2292.320312 1110.960938 2369.421875 1110.960938 Z M 2369.421875 1110.960938 "/>
</clipPath>
<clipPath id="clip-40">
<path clip-rule="evenodd" d="M 2369.421875 1070.179688 C 2470.941406 1070.179688 2553.351562 1146.160156 2553.351562 1239.75 C 2553.351562 1333.339844 2470.941406 1409.320312 2369.421875 1409.320312 C 2267.910156 1409.320312 2185.488281 1333.339844 2185.488281 1239.75 C 2185.488281 1146.160156 2267.910156 1070.179688 2369.421875 1070.179688 Z M 2369.421875 1070.179688 "/>
</clipPath>
<clipPath id="clip-41">
<path clip-rule="nonzero" d="M 2270 1503 L 2469 1503 L 2469 1687 L 2270 1687 Z M 2270 1503 "/>
</clipPath>
<clipPath id="clip-42">
<path clip-rule="evenodd" d="M 2369.421875 1483.28125 C 2436.148438 1483.28125 2490.320312 1533.21875 2490.320312 1594.738281 C 2490.320312 1656.25 2436.148438 1706.199219 2369.421875 1706.199219 C 2302.699219 1706.199219 2248.53125 1656.25 2248.53125 1594.738281 C 2248.53125 1533.21875 2302.699219 1483.28125 2369.421875 1483.28125 Z M 2369.421875 1483.28125 "/>
</clipPath>
<clipPath id="clip-43">
<path clip-rule="nonzero" d="M 2277 1510 L 2462 1510 L 2462 1680 L 2277 1680 Z M 2277 1510 "/>
</clipPath>
<clipPath id="clip-44">
<path clip-rule="evenodd" d="M 2369.421875 1483.28125 C 2436.148438 1483.28125 2490.320312 1533.21875 2490.320312 1594.738281 C 2490.320312 1656.25 2436.148438 1706.199219 2369.421875 1706.199219 C 2302.699219 1706.199219 2248.53125 1656.25 2248.53125 1594.738281 C 2248.53125 1533.21875 2302.699219 1483.28125 2369.421875 1483.28125 Z M 2369.421875 1483.28125 "/>
</clipPath>
<clipPath id="clip-45">
<path clip-rule="nonzero" d="M 2371 1510 L 2462 1510 L 2462 1680 L 2371 1680 Z M 2371 1510 "/>
</clipPath>
<clipPath id="clip-46">
<path clip-rule="evenodd" d="M 2369.421875 1510.089844 C 2420.101562 1510.089844 2461.238281 1548.019531 2461.238281 1594.738281 C 2461.238281 1641.460938 2420.101562 1679.390625 2369.421875 1679.390625 C 2318.75 1679.390625 2277.601562 1641.460938 2277.601562 1594.738281 C 2277.601562 1548.019531 2318.75 1510.089844 2369.421875 1510.089844 Z M 2369.421875 1510.089844 "/>
</clipPath>
<clipPath id="clip-47">
<path clip-rule="evenodd" d="M 2369.421875 1483.28125 C 2436.148438 1483.28125 2490.320312 1533.21875 2490.320312 1594.738281 C 2490.320312 1656.25 2436.148438 1706.199219 2369.421875 1706.199219 C 2302.699219 1706.199219 2248.53125 1656.25 2248.53125 1594.738281 C 2248.53125 1533.21875 2302.699219 1483.28125 2369.421875 1483.28125 Z M 2369.421875 1483.28125 "/>
</clipPath>
<clipPath id="clip-48">
<path clip-rule="nonzero" d="M 2362 2043 L 2453 2043 L 2453 3023 L 2362 3023 Z M 2362 2043 "/>
</clipPath>
<clipPath id="clip-49">
<path clip-rule="evenodd" d="M 2369.421875 2043.648438 C 2369.421875 2043.648438 2452.390625 2158.230469 2452.589844 2219.808594 C 2453.101562 2382.910156 2372.519531 3022.210938 2372.519531 3022.210938 C 2372.519531 3022.210938 2278.03125 2381.191406 2277.511719 2218.089844 C 2277.320312 2156.429688 2369.421875 2043.648438 2369.421875 2043.648438 Z M 2369.421875 2043.648438 "/>
</clipPath>
</defs>
<rect x="-480" y="-480" width="5760" height="5760" fill="rgb(100%, 100%, 100%)" fill-opacity="1"/>
<path fill-rule="evenodd" fill="rgb(86.131287%, 8.787537%, 8.787537%)" fill-opacity="1" d="M 2906.480469 3138.519531 L 2707.359375 2594.21875 L 2785.089844 2078.828125 C 2785.089844 2078.828125 3027.011719 2176.949219 3038.691406 2278.96875 C 3058.929688 2455.578125 2994.699219 2980 2906.480469 3138.519531 "/>
<g clip-path="url(#clip-0)">
<g clip-path="url(#clip-1)">
<path fill-rule="evenodd" fill="rgb(100%, 15.893555%, 15.893555%)" fill-opacity="1" d="M 2872.640625 3139.359375 L 2707.359375 2594.21875 L 2767.960938 2079.261719 C 2767.960938 2079.261719 2965.71875 2178.46875 2975.800781 2280.53125 C 2993.25 2457.210938 2943.710938 2981.269531 2872.640625 3139.359375 "/>
</g>
</g>
<g clip-path="url(#clip-2)">
<g clip-path="url(#clip-3)">
<path fill-rule="evenodd" fill="rgb(85.9375%, 9.690857%, 9.690857%)" fill-opacity="1" d="M 2719.910156 2609.308594 C 2716.230469 2618.441406 2689.589844 2578.140625 2689.589844 2578.140625 L 2699.179688 2238.109375 L 2745.179688 2007.558594 L 2828.359375 2078.828125 C 2828.359375 2078.828125 2824.460938 2349.671875 2719.910156 2609.308594 "/>
</g>
</g>
<path fill-rule="evenodd" fill="rgb(100%, 29.710388%, 29.710388%)" fill-opacity="1" d="M 1893.519531 3138.519531 L 2092.640625 2594.21875 L 2014.910156 2078.828125 C 2014.910156 2078.828125 1772.988281 2176.949219 1761.308594 2278.96875 C 1741.070312 2455.578125 1805.300781 2980 1893.519531 3138.519531 "/>
<g clip-path="url(#clip-4)">
<g clip-path="url(#clip-5)">
<path fill-rule="evenodd" fill="rgb(95.896912%, 22.093201%, 22.093201%)" fill-opacity="1" d="M 1927.359375 3139.359375 L 2092.640625 2594.21875 L 2032.039062 2079.261719 C 2032.039062 2079.261719 1834.28125 2178.46875 1824.199219 2280.53125 C 1806.75 2457.210938 1856.289062 2981.269531 1927.359375 3139.359375 "/>
</g>
</g>
<path fill-rule="evenodd" fill="rgb(96.679688%, 94.53125%, 74.21875%)" fill-opacity="1" d="M 2378.191406 574.910156 C 2800.949219 1221.191406 2928.410156 1894.039062 2705.628906 2594.21875 L 2036.949219 2592.25 C 1819.769531 1964.351562 1911.269531 1290.140625 2378.191406 574.910156 "/>
<g clip-path="url(#clip-6)">
<g clip-path="url(#clip-7)">
<path fill-rule="evenodd" fill="rgb(93.554688%, 91.601562%, 70.896912%)" fill-opacity="1" d="M 2376.539062 606.601562 C 2719.851562 1239.96875 2823.351562 1899.390625 2642.441406 2585.589844 L 2099.429688 2583.660156 C 1923.070312 1968.289062 1997.378906 1307.550781 2376.539062 606.601562 "/>
</g>
</g>
<g clip-path="url(#clip-8)">
<g clip-path="url(#clip-9)">
<g clip-path="url(#clip-10)">
<path fill-rule="evenodd" fill="rgb(91.40625%, 88.867188%, 62.693787%)" fill-opacity="1" d="M 2813.738281 488.109375 L 2369.421875 488.109375 L 2369.421875 2735.730469 L 2813.738281 2735.730469 L 2813.738281 488.109375 "/>
</g>
</g>
</g>
<g clip-path="url(#clip-11)">
<g clip-path="url(#clip-12)">
<path fill-rule="evenodd" fill="rgb(88.476562%, 2.89917%, 2.89917%)" fill-opacity="1" d="M 2625.128906 574.910156 L 2088.261719 574.910156 L 2088.261719 945.421875 L 2625.128906 945.421875 L 2625.128906 574.910156 "/>
</g>
</g>
<g clip-path="url(#clip-13)">
<g clip-path="url(#clip-14)">
<path fill-rule="evenodd" fill="rgb(96.09375%, 15.893555%, 15.893555%)" fill-opacity="1" d="M 2534.820312 945.421875 C 2488.96875 829.171875 2435.320312 715 2375.988281 602.359375 C 2320.25 715.71875 2266.390625 829.75 2217.191406 945.421875 L 2534.820312 945.421875 "/>
</g>
</g>
<g clip-path="url(#clip-15)">
<g clip-path="url(#clip-16)">
<g clip-path="url(#clip-17)">
<path fill-rule="evenodd" fill="rgb(93.164062%, 7.591248%, 7.591248%)" fill-opacity="1" d="M 2601.949219 468.140625 L 2376.011719 468.140625 L 2376.011719 973.300781 L 2601.949219 973.300781 L 2601.949219 468.140625 "/>
</g>
</g>
</g>
<path fill-rule="evenodd" fill="rgb(100%, 42.405701%, 20.410156%)" fill-opacity="1" d="M 2366.601562 3774.410156 C 2161.058594 3513.429688 2092.460938 3172.570312 2188.378906 2735.730469 L 2544.828125 2735.730469 C 2646.480469 3139.300781 2587.921875 3485.828125 2366.601562 3774.410156 "/>
<g clip-path="url(#clip-18)">
<g clip-path="url(#clip-19)">
<path fill-rule="evenodd" fill="rgb(95.701599%, 31.201172%, 12.597656%)" fill-opacity="1" d="M 2683.941406 2656.828125 L 2369.421875 2656.828125 L 2369.421875 3870.484375 L 2683.941406 3870.484375 L 2683.941406 2656.828125 "/>
</g>
</g>
<g clip-path="url(#clip-20)">
<g clip-path="url(#clip-21)">
<path fill-rule="evenodd" fill="rgb(100%, 85.9375%, 17.088318%)" fill-opacity="1" d="M 2367.390625 3513.949219 C 2218.898438 3318.410156 2169.339844 3063.03125 2238.640625 2735.730469 L 2496.140625 2735.730469 C 2547.25 2946.171875 2542.289062 3135.910156 2480.660156 3304.71875 C 2453.738281 3378.460938 2416 3448.210938 2367.390625 3513.949219 "/>
</g>
</g>
<g clip-path="url(#clip-22)">
<g clip-path="url(#clip-23)">
<g clip-path="url(#clip-24)">
<path fill-rule="evenodd" fill="rgb(90.039062%, 77.929688%, 18.188477%)" fill-opacity="1" d="M 2550.378906 2656.828125 L 2369.421875 2656.828125 L 2369.421875 3550.019531 L 2550.378906 3550.019531 L 2550.378906 2656.828125 "/>
</g>
</g>
</g>
<g clip-path="url(#clip-25)">
<g clip-path="url(#clip-26)">
<path fill-rule="evenodd" fill="rgb(99.804688%, 100%, 33.300781%)" fill-opacity="1" d="M 2369.148438 3278.761719 C 2270.210938 3148.460938 2237.179688 2978.28125 2283.359375 2760.179688 L 2454.949219 2760.179688 C 2503.878906 2961.671875 2475.691406 3134.679688 2369.148438 3278.761719 "/>
</g>
</g>
<g clip-path="url(#clip-27)">
<g clip-path="url(#clip-28)">
<g clip-path="url(#clip-29)">
<path fill-rule="evenodd" fill="rgb(83.789062%, 83.984375%, 21.897888%)" fill-opacity="1" d="M 2490.320312 2735.730469 L 2369.421875 2735.730469 L 2369.421875 3346.058594 L 2490.320312 3346.058594 L 2490.320312 2735.730469 "/>
</g>
</g>
</g>
<path fill-rule="evenodd" fill="rgb(0%, 34.788513%, 53.318787%)" fill-opacity="1" d="M 2605.558594 2632.78125 L 2135.378906 2632.78125 C 2135.378906 2632.78125 2140.371094 2695.558594 2146.828125 2712.710938 C 2153.28125 2729.871094 2164.691406 2735.210938 2174.109375 2735.730469 C 2243.328125 2739.558594 2492.128906 2739.109375 2562.148438 2735.730469 C 2573.058594 2735.199219 2586.28125 2727.410156 2594.21875 2715.421875 C 2604.101562 2700.488281 2605.558594 2632.78125 2605.558594 2632.78125 "/>
<g clip-path="url(#clip-30)">
<g clip-path="url(#clip-31)">
<path fill-rule="evenodd" fill="rgb(4.096985%, 32.104492%, 46.801758%)" fill-opacity="1" d="M 2605.558594 2632.78125 L 2234.171875 2632.78125 C 2234.171875 2632.78125 2238.808594 2658.75 2234.171875 2674.269531 C 2231.230469 2684.128906 2229.648438 2694.949219 2234.171875 2704.941406 C 2238.640625 2714.800781 2234.171875 2738.441406 2234.171875 2738.441406 C 2234.171875 2738.441406 2510.871094 2739.558594 2571.269531 2735.730469 C 2579.890625 2735.179688 2590.328125 2727.410156 2596.601562 2715.421875 C 2604.410156 2700.488281 2605.558594 2632.78125 2605.558594 2632.78125 "/>
</g>
</g>
<path fill-rule="evenodd" fill="rgb(24.19281%, 49.510193%, 67.96875%)" fill-opacity="1" d="M 2707.359375 2585.589844 L 2034.398438 2585.589844 C 2034.398438 2585.589844 2036.191406 2611.550781 2040.75 2619.421875 C 2044.820312 2626.441406 2048.710938 2632.710938 2061.738281 2632.78125 C 2160.359375 2633.269531 2581.550781 2635.320312 2679.828125 2632.78125 C 2689.359375 2632.53125 2697.390625 2623.378906 2701.980469 2615.519531 C 2706.570312 2607.648438 2707.359375 2585.589844 2707.359375 2585.589844 "/>
<g clip-path="url(#clip-32)">
<g clip-path="url(#clip-33)">
<path fill-rule="evenodd" fill="rgb(27.197266%, 42.601013%, 53.709412%)" fill-opacity="1" d="M 2707.359375 2585.589844 L 2234.171875 2585.589844 C 2234.171875 2585.589844 2236.03125 2595.609375 2234.171875 2600.570312 C 2232.121094 2606.050781 2231.640625 2614.160156 2234.171875 2620.371094 C 2235.75 2624.238281 2234.171875 2632.78125 2234.171875 2632.78125 L 2707.359375 2632.78125 L 2707.359375 2585.589844 "/>
</g>
</g>
<path fill-rule="evenodd" fill="rgb(20.506287%, 20.506287%, 20.506287%)" fill-opacity="1" d="M 2369.421875 1070.179688 C 2470.941406 1070.179688 2553.351562 1146.160156 2553.351562 1239.75 C 2553.351562 1333.339844 2470.941406 1409.320312 2369.421875 1409.320312 C 2267.910156 1409.320312 2185.488281 1333.339844 2185.488281 1239.75 C 2185.488281 1146.160156 2267.910156 1070.179688 2369.421875 1070.179688 "/>
<g clip-path="url(#clip-34)">
<g clip-path="url(#clip-35)">
<path fill-rule="evenodd" fill="rgb(25.706482%, 52.34375%, 57.421875%)" fill-opacity="1" d="M 2369.421875 1100.71875 C 2452.648438 1100.71875 2520.230469 1163.011719 2520.230469 1239.75 C 2520.230469 1316.480469 2452.648438 1378.769531 2369.421875 1378.769531 C 2286.191406 1378.769531 2218.621094 1316.480469 2218.621094 1239.75 C 2218.621094 1163.011719 2286.191406 1100.71875 2369.421875 1100.71875 "/>
</g>
</g>
<g clip-path="url(#clip-36)">
<g clip-path="url(#clip-37)">
<path fill-rule="evenodd" fill="rgb(44.189453%, 86.326599%, 94.334412%)" fill-opacity="1" d="M 2369.421875 1110.960938 C 2446.519531 1110.960938 2509.121094 1168.671875 2509.121094 1239.75 C 2509.121094 1310.820312 2446.519531 1368.53125 2369.421875 1368.53125 C 2292.320312 1368.53125 2229.730469 1310.820312 2229.730469 1239.75 C 2229.730469 1168.671875 2292.320312 1110.960938 2369.421875 1110.960938 "/>
</g>
</g>
<g clip-path="url(#clip-38)">
<g clip-path="url(#clip-39)">
<g clip-path="url(#clip-40)">
<path fill-rule="evenodd" fill="rgb(45.701599%, 79.6875%, 86.131287%)" fill-opacity="1" d="M 2617.789062 1063.480469 L 2370.878906 1063.480469 C 2370.878906 1063.480469 2366.121094 1145.308594 2370.878906 1186.5 C 2375.058594 1222.71875 2377.011719 1261.46875 2370.878906 1295.890625 C 2364.070312 1334.078125 2370.878906 1419.269531 2370.878906 1419.269531 L 2617.789062 1419.269531 L 2617.789062 1063.480469 "/>
</g>
</g>
</g>
<path fill-rule="evenodd" fill="rgb(20.506287%, 20.506287%, 20.506287%)" fill-opacity="1" d="M 2369.421875 1483.28125 C 2436.148438 1483.28125 2490.320312 1533.21875 2490.320312 1594.738281 C 2490.320312 1656.25 2436.148438 1706.199219 2369.421875 1706.199219 C 2302.699219 1706.199219 2248.53125 1656.25 2248.53125 1594.738281 C 2248.53125 1533.21875 2302.699219 1483.28125 2369.421875 1483.28125 "/>
<g clip-path="url(#clip-41)">
<g clip-path="url(#clip-42)">
<path fill-rule="evenodd" fill="rgb(25.706482%, 52.34375%, 57.421875%)" fill-opacity="1" d="M 2369.421875 1503.359375 C 2424.128906 1503.359375 2468.539062 1544.300781 2468.539062 1594.738281 C 2468.539062 1645.171875 2424.128906 1686.121094 2369.421875 1686.121094 C 2314.71875 1686.121094 2270.300781 1645.171875 2270.300781 1594.738281 C 2270.300781 1544.300781 2314.71875 1503.359375 2369.421875 1503.359375 "/>
</g>
</g>
<g clip-path="url(#clip-43)">
<g clip-path="url(#clip-44)">
<path fill-rule="evenodd" fill="rgb(44.189453%, 86.326599%, 94.334412%)" fill-opacity="1" d="M 2369.421875 1510.089844 C 2420.101562 1510.089844 2461.238281 1548.019531 2461.238281 1594.738281 C 2461.238281 1641.460938 2420.101562 1679.390625 2369.421875 1679.390625 C 2318.75 1679.390625 2277.601562 1641.460938 2277.601562 1594.738281 C 2277.601562 1548.019531 2318.75 1510.089844 2369.421875 1510.089844 "/>
</g>
</g>
<g clip-path="url(#clip-45)">
<g clip-path="url(#clip-46)">
<g clip-path="url(#clip-47)">
<path fill-rule="evenodd" fill="rgb(45.701599%, 79.6875%, 86.131287%)" fill-opacity="1" d="M 2519.539062 1475.921875 L 2373.648438 1475.921875 C 2373.648438 1475.921875 2368.75 1526.011719 2373.648438 1550.328125 C 2378.761719 1575.71875 2377.929688 1604.671875 2373.648438 1629.261719 C 2368.820312 1656.941406 2373.648438 1718.960938 2373.648438 1718.960938 L 2519.539062 1718.960938 L 2519.539062 1475.921875 "/>
</g>
</g>
</g>
<path fill-rule="evenodd" fill="rgb(100%, 18.797302%, 18.797302%)" fill-opacity="1" d="M 2369.421875 2043.648438 C 2369.421875 2043.648438 2452.390625 2158.230469 2452.589844 2219.808594 C 2453.101562 2382.910156 2372.519531 3022.210938 2372.519531 3022.210938 C 2372.519531 3022.210938 2278.03125 2381.191406 2277.511719 2218.089844 C 2277.320312 2156.429688 2369.421875 2043.648438 2369.421875 2043.648438 "/>
<g clip-path="url(#clip-48)">
<g clip-path="url(#clip-49)">
<path fill-rule="evenodd" fill="rgb(86.131287%, 8.787537%, 8.787537%)" fill-opacity="1" d="M 2490.320312 1993.488281 L 2369.421875 1993.488281 C 2369.421875 1993.488281 2354.261719 2119.769531 2369.421875 2190.421875 C 2389.25 2282.839844 2382.921875 2433.808594 2369.421875 2558.761719 C 2353.710938 2704.199219 2369.421875 3067.410156 2369.421875 3067.410156 L 2490.320312 3067.410156 L 2490.320312 1993.488281 "/>
</g>
</g>
<path fill-rule="evenodd" fill="rgb(100%, 100%, 100%)" fill-opacity="1" d="M 2326.289062 1132.460938 C 2326.710938 1132.511719 2326.820312 1132.511719 2327.238281 1132.601562 C 2330.058594 1133.179688 2332.378906 1135.421875 2332.878906 1138.050781 C 2333.53125 1141.460938 2330.949219 1145 2327.171875 1145.851562 C 2326.96875 1145.890625 2326.769531 1145.941406 2326.570312 1145.988281 C 2303.890625 1151.210938 2283.210938 1162.980469 2271.421875 1182.128906 C 2265.550781 1191.671875 2261.789062 1202.511719 2261.109375 1213.328125 C 2261.070312 1213.898438 2261.050781 1214.738281 2261.050781 1214.738281 C 2260.910156 1217.589844 2258.890625 1220.230469 2255.980469 1221.109375 C 2251.769531 1222.378906 2246.609375 1219.511719 2246.351562 1215.03125 C 2246.121094 1211.199219 2246.839844 1207.691406 2247.550781 1203.960938 C 2251.730469 1182.050781 2265.058594 1161.628906 2284.960938 1148.511719 C 2296.429688 1140.960938 2309.671875 1135.859375 2323.460938 1132.71875 C 2323.460938 1132.71875 2324.070312 1132.550781 2324.851562 1132.46875 C 2325.769531 1132.378906 2325.988281 1132.441406 2326.289062 1132.460938 "/>
<path fill-rule="evenodd" fill="rgb(100%, 100%, 100%)" fill-opacity="1" d="M 2342.140625 1530.988281 C 2342.378906 1531.011719 2342.441406 1531.011719 2342.679688 1531.058594 C 2344.289062 1531.378906 2345.609375 1532.621094 2345.890625 1534.070312 C 2346.261719 1535.960938 2344.789062 1537.910156 2342.640625 1538.378906 C 2342.53125 1538.410156 2342.410156 1538.429688 2342.300781 1538.460938 C 2329.378906 1541.339844 2317.601562 1547.839844 2310.878906 1558.421875 C 2307.539062 1563.691406 2305.390625 1569.679688 2305.011719 1575.660156 C 2304.988281 1575.96875 2304.96875 1576.429688 2304.96875 1576.429688 C 2304.890625 1578.011719 2303.738281 1579.46875 2302.089844 1579.949219 C 2299.691406 1580.648438 2296.75 1579.070312 2296.601562 1576.601562 C 2296.46875 1574.480469 2296.878906 1572.539062 2297.289062 1570.480469 C 2299.671875 1558.378906 2307.261719 1547.101562 2318.589844 1539.851562 C 2325.128906 1535.679688 2332.671875 1532.859375 2340.53125 1531.128906 C 2340.53125 1531.128906 2340.871094 1531.039062 2341.308594 1530.988281 C 2341.839844 1530.941406 2341.96875 1530.980469 2342.140625 1530.988281 "/>
<path fill-rule="evenodd" fill="rgb(100%, 100%, 100%)" fill-opacity="1" d="M 2250.839844 1230.109375 C 2255.390625 1230.109375 2259.089844 1233.441406 2259.089844 1237.53125 C 2259.089844 1241.621094 2255.390625 1244.941406 2250.839844 1244.941406 C 2246.28125 1244.941406 2242.578125 1241.621094 2242.578125 1237.53125 C 2242.578125 1233.441406 2246.28125 1230.109375 2250.839844 1230.109375 "/>
<path fill-rule="evenodd" fill="rgb(100%, 100%, 100%)" fill-opacity="1" d="M 2299.160156 1584.929688 C 2301.75 1584.929688 2303.859375 1586.761719 2303.859375 1589.019531 C 2303.859375 1591.28125 2301.75 1593.121094 2299.160156 1593.121094 C 2296.558594 1593.121094 2294.449219 1591.28125 2294.449219 1589.019531 C 2294.449219 1586.761719 2296.558594 1584.929688 2299.160156 1584.929688 "/>
<path fill-rule="evenodd" fill="rgb(91.40625%, 91.40625%, 91.40625%)" fill-opacity="1" d="M 2373.648438 4117.757812 C 2616.539062 4117.757812 2813.738281 4141.804688 2813.738281 4171.421875 C 2813.738281 4201.039062 2616.539062 4225.085938 2373.648438 4225.085938 C 2130.75 4225.085938 1933.550781 4201.039062 1933.550781 4171.421875 C 1933.550781 4141.804688 2130.75 4117.757812 2373.648438 4117.757812 "/>
</svg>
